<svg id="visual" viewBox="0 0 900 600" width="900" height="600" xmlns="http://www.w3.org/2000/svg" xmlns:xlink="http://www.w3.org/1999/xlink" version="1.1"><path d="M0 397L21.5 412.3C43 427.7 86 458.3 128.8 474.2C171.7 490 214.3 491 257.2 481C300 471 343 450 385.8 447.3C428.7 444.7 471.3 460.3 514.2 468.3C557 476.3 600 476.7 642.8 466.5C685.7 456.3 728.3 435.7 771.2 432.7C814 429.7 857 444.3 878.5 451.7L900 459L900 601L878.5 601C857 601 814 601 771.2 601C728.3 601 685.7 601 642.8 601C600 601 557 601 514.2 601C471.3 601 428.7 601 385.8 601C343 601 300 601 257.2 601C214.3 601 171.7 601 128.8 601C86 601 43 601 21.5 601L0 601Z" fill="#06429b" stroke-linecap="round" stroke-linejoin="miter"></path></svg>